<?xml version="1.0" standalone="no"?>
<!DOCTYPE svg PUBLIC "-//W3C//DTD SVG 20010904//EN"
 "http://www.w3.org/TR/2001/REC-SVG-20010904/DTD/svg10.dtd">
<svg version="1.0" xmlns="http://www.w3.org/2000/svg"
 width="256.000000pt" height="256.000000pt" viewBox="0 0 256.000000 256.000000"
 preserveAspectRatio="xMidYMid meet">
<metadata>
Created by potrace 1.14, written by Peter Selinger 2001-2017
</metadata>
<g transform="translate(0.000000,256.000000) scale(0.100000,-0.100000)"
fill="#000000" stroke="none">
<path d="M1191 2435 c-113 -20 -199 -47 -377 -116 -138 -55 -156 -65 -220
-123 -60 -55 -128 -142 -96 -122 8 5 10 2 6 -8 -3 -9 -11 -13 -17 -9 -5 3 -7
1 -3 -5 3 -6 -3 -27 -15 -46 -12 -20 -19 -42 -16 -50 6 -14 100 -36 158 -36
44 0 50 -6 38 -39 l-9 -24 -118 7 -118 6 -38 -104 c-37 -102 -38 -108 -34
-213 4 -120 25 -183 78 -238 l29 -30 -1 -160 c-2 -88 1 -218 5 -290 5 -71 8
-137 8 -145 1 -8 3 -22 6 -30 4 -8 7 -29 8 -46 4 -50 23 -96 55 -134 32 -38
36 -37 19 7 -12 31 -28 163 -20 163 3 0 20 -15 39 -32 25 -25 31 -28 26 -13
-4 11 -11 25 -16 31 -4 6 -11 40 -14 75 -5 60 -5 63 10 39 8 -14 21 -39 29
-56 8 -18 31 -49 50 -70 19 -22 44 -57 55 -79 24 -48 66 -90 105 -104 15 -6
27 -15 27 -20 0 -11 -53 -31 -100 -38 -64 -9 -116 -48 -145 -107 -15 -30 -32
-57 -37 -58 -6 -2 -12 -28 -14 -58 -2 -30 -6 -79 -9 -107 l-5 -53 219 0 220 0
20 29 c12 16 21 31 21 34 0 2 23 53 52 113 46 98 52 106 59 84 7 -19 7 -16 3
12 -3 26 1 46 16 70 l21 33 -6 -100 c-8 -135 -13 -155 -32 -148 -13 5 -14 3
-3 -17 10 -18 14 -20 22 -9 6 9 8 -5 4 -44 l-6 -57 560 0 560 0 6 27 c13 50
-13 173 -52 251 -40 80 -48 87 -185 160 -112 60 -134 80 -99 89 12 3 41 16 64
28 74 38 136 199 136 353 0 39 4 52 13 49 9 -3 12 -32 10 -103 -1 -111 -23
-189 -70 -250 l-27 -37 39 21 c49 25 67 44 93 102 39 88 54 146 63 245 14 163
-11 350 -85 625 -62 234 -75 275 -84 278 -6 2 -8 10 -5 19 4 10 2 14 -4 10 -5
-3 -20 16 -33 43 -39 83 -35 82 -200 49 -80 -16 -151 -27 -157 -24 -26 9 -14
35 16 35 28 0 199 52 231 71 43 25 43 23 19 95 -18 54 -35 82 -78 127 -98 102
-156 134 -257 143 -28 2 -69 11 -90 20 -54 23 -218 27 -323 9z m454 -495 c0
-10 -15 -17 -50 -22 -70 -9 -220 -10 -211 -1 8 8 222 42 246 40 8 -1 15 -9 15
-17z m-605 -36 c11 -5 8 -9 -11 -14 -39 -11 -335 -34 -353 -27 -15 6 -12 35 5
47 10 7 340 1 359 -6z m92 -291 c12 -13 20 -24 17 -26 -9 -8 -91 -28 -95 -24
-3 2 -7 51 -11 108 l-6 104 37 -70 c20 -38 47 -80 58 -92z m-472 -22 c9 -32 0
-41 -18 -18 -6 7 -9 23 -5 35 7 27 11 24 23 -17z m565 -75 c6 -5 -8 -6 -36 -3
-30 4 -54 1 -73 -8 -38 -20 -56 -19 -56 4 0 14 14 25 53 39 l52 20 25 -21 c14
-12 30 -26 35 -31z m137 -36 l32 -45 -34 22 c-35 21 -52 46 -65 93 l-6 25 21
-25 c11 -14 35 -45 52 -70z m-702 60 c10 -5 25 -23 33 -39 15 -30 15 -30 -13
-25 -20 5 -33 0 -50 -18 l-22 -23 7 50 c10 70 12 72 45 55z m159 -79 c56 -88
177 -178 189 -142 2 6 23 8 53 4 27 -3 49 -3 49 1 0 4 -9 34 -20 67 -22 64
-21 73 13 90 21 12 22 11 4 -8 -13 -15 -16 -29 -11 -49 11 -46 15 -48 35 -15
18 30 53 51 85 51 13 0 12 -5 -4 -25 -29 -37 -36 -105 -17 -170 8 -30 21 -55
28 -55 22 0 40 17 32 31 -5 7 2 5 16 -4 33 -23 56 -21 84 8 23 22 25 22 25 5
0 -21 -36 -50 -62 -50 -16 0 -58 -33 -58 -45 0 -3 7 -5 16 -5 8 0 12 -4 9 -10
-9 -14 12 -12 44 5 34 17 101 92 101 112 0 8 5 11 11 7 14 -8 5 -196 -14 -289
l-12 -60 -100 -68 c-110 -75 -246 -152 -285 -162 -19 -4 -46 6 -105 39 -127
70 -188 118 -228 179 -34 51 -39 69 -67 232 -17 98 -29 180 -26 182 2 3 11 -8
20 -24 15 -28 15 -28 16 33 0 45 5 68 19 85 l18 23 1 -60 c1 -76 22 -140 44
-136 9 1 19 -2 23 -8 3 -5 15 -10 26 -10 10 0 19 -4 19 -10 0 -5 -6 -10 -14
-10 -19 0 -30 -32 -14 -42 7 -4 20 -7 28 -5 12 2 15 21 12 106 -2 92 0 102 14
97 12 -5 15 -2 11 11 -3 10 -14 46 -25 81 -11 34 -19 62 -18 62 2 0 17 -22 35
-49z m981 -16 c24 -47 20 -170 -8 -222 -12 -23 -25 -44 -30 -47 -4 -2 -8 27
-8 67 1 60 5 75 24 94 22 22 30 53 13 53 -5 0 -12 -11 -15 -25 -9 -37 -26 -30
-26 11 0 27 5 37 20 41 11 3 17 9 15 14 -3 4 -12 6 -20 2 -11 -4 -15 2 -15 22
0 36 30 30 50 -10z m-1390 -7 c0 -13 9 -43 20 -67 23 -49 24 -61 9 -61 -13 0
-35 53 -44 108 -4 28 -3 42 4 42 6 0 11 -10 11 -22z m960 -64 c0 -9 -7 -14
-17 -12 -25 5 -28 28 -4 28 12 0 21 -6 21 -16z m-592 -15 c-2 -6 -8 -10 -13
-10 -5 0 -11 4 -13 10 -2 6 4 11 13 11 9 0 15 -5 13 -11z m628 -481 c-2 -7
-10 -35 -17 -63 -7 -27 -30 -88 -50 -135 -21 -47 -34 -87 -28 -88 5 -2 39 10
75 27 l66 31 -7 -38 c-3 -20 -17 -61 -30 -89 -19 -43 -21 -53 -9 -53 42 0 154
90 195 157 14 23 24 31 29 23 7 -11 40 33 52 70 3 8 9 -3 13 -25 3 -22 13 -56
20 -76 13 -35 13 -37 -28 -86 -23 -28 -73 -78 -112 -112 -38 -33 -88 -83 -110
-110 -22 -28 -43 -50 -47 -51 -13 0 -130 152 -147 193 -10 23 -27 49 -37 57
-15 11 -17 11 -6 0 18 -20 15 -30 -9 -30 -18 0 -21 5 -17 34 2 19 0 32 -4 30
-4 -3 -9 7 -9 23 -2 42 -5 67 -13 96 -4 17 0 32 12 46 15 18 212 181 219 181
1 0 1 -6 -1 -12z m56 -178 c-3 -21 -13 -35 -33 -45 l-28 -15 27 45 c32 52 40
56 34 15z m467 -111 c-29 -51 -53 -69 -71 -51 -10 10 -7 16 12 29 14 9 36 29
50 44 34 37 37 29 9 -22z m-763 6 c-5 -23 -2 -44 8 -64 15 -27 14 -29 -5 -34
-15 -4 -19 -2 -15 9 10 27 -14 14 -29 -16 -9 -16 -22 -30 -30 -30 -13 0 -12 7
5 40 11 21 20 44 20 51 0 19 32 79 42 79 6 0 8 -14 4 -35z m-56 -170 c0 -3
-14 -28 -32 -56 -26 -43 -33 -49 -38 -33 -4 11 -1 24 10 34 9 8 10 11 3 6 -16
-10 -17 -1 -2 26 9 16 13 18 20 7 6 -11 9 -10 15 4 5 15 24 25 24 12z m144
-37 c25 -32 25 -33 6 -42 -25 -11 -30 -7 -40 38 -10 45 1 46 34 4z m-35 -193
c10 -55 22 -108 26 -117 5 -12 1 -20 -11 -25 -11 -4 -25 -16 -33 -27 -15 -20
-15 -20 -21 5 -4 13 -4 92 -2 174 6 162 8 161 41 -10z m115 92 c19 -29 31 -54
26 -55 -6 -2 -7 -8 -4 -13 6 -10 -55 -108 -68 -109 -10 0 -48 161 -48 205 0
13 41 35 52 28 4 -2 23 -27 42 -56z m-289 -47 c-26 -52 -41 -66 -29 -27 7 23
42 77 50 77 2 0 -7 -22 -21 -50z"/>
<path d="M723 1143 c10 -15 39 -21 62 -12 17 7 17 8 -7 8 -14 1 -34 4 -44 8
-11 4 -15 3 -11 -4z"/>
<path d="M1205 1130 c3 -6 20 -10 37 -10 38 0 34 5 -10 13 -21 4 -31 3 -27 -3z"/>
<path d="M840 1094 c0 -8 5 -12 10 -9 6 3 10 10 10 16 0 5 -4 9 -10 9 -5 0
-10 -7 -10 -16z"/>
<path d="M1015 1000 c-11 -5 -52 -9 -91 -9 l-71 -1 17 -76 c13 -53 26 -84 46
-105 37 -38 41 -31 9 16 -37 55 -33 72 17 86 47 12 143 8 158 -7 19 -19 -1
-75 -34 -96 -28 -17 -28 -19 -6 -13 61 16 79 98 40 175 -21 41 -42 49 -85 30z"/>
</g>
</svg>
