<svg xmlns="http://www.w3.org/2000/svg" width="360" height="60" viewBox="0 0 360 60">
  <metadata><?xpacket begin="﻿" id="W5M0MpCehiHzreSzNTczkc9d"?>
<x:xmpmeta xmlns:x="adobe:ns:meta/" x:xmptk="Adobe XMP Core 5.6-c142 79.160924, 2017/07/13-01:06:39        ">
   <rdf:RDF xmlns:rdf="http://www.w3.org/1999/02/22-rdf-syntax-ns#">
      <rdf:Description rdf:about=""/>
   </rdf:RDF>
</x:xmpmeta>
                                                                                                    
                                                                                                    
                                                                                                    
                                                                                                    
                                                                                                    
                                                                                                    
                                                                                                    
                                                                                                    
                                                                                                    
                                                                                                    
                                                                                                    
                                                                                                    
                                                                                                    
                                                                                                    
                                                                                                    
                                                                                                    
                                                                                                    
                                                                                                    
                                                                                                    
                                                                                                    
                           
<?xpacket end="w"?></metadata>
<defs>
    <style>
      .cls-1 {
        fill: #222;
        fill-rule: evenodd;
      }
    </style>
  </defs>
  <path id="_CONTENTS_" data-name="☙ CONTENTS ❧" class="cls-1" d="M55.6,30.008a2.292,2.292,0,0,0,.216-0.972V28.46A2.32,2.32,0,0,0,54.812,26.7a7.66,7.66,0,0,0-2.466-1.314A8.449,8.449,0,0,0,49.7,24.9q-0.468,0-1.332.072a3.253,3.253,0,0,1,.7-1.6,1.669,1.669,0,0,1,1.17-.846,0.672,0.672,0,0,1,.36.09,2.14,2.14,0,0,1,.4.378,4.562,4.562,0,0,0,.936.846,2.428,2.428,0,0,0,1.332.306,3.447,3.447,0,0,0,2.574-1.1,3.627,3.627,0,0,0,1.062-2.61,1.986,1.986,0,0,0-.486-1.35,1.4,1.4,0,0,0-1.062-.558,1.585,1.585,0,0,0-1.26.972,1.114,1.114,0,0,1-.432.468,0.731,0.731,0,0,1-.432-0.468,2.744,2.744,0,0,0-.558-0.648,1.3,1.3,0,0,0-.846-0.252,5.5,5.5,0,0,0-3.006.936A7.255,7.255,0,0,0,46.46,22a6.259,6.259,0,0,0-.9,3.222v0.216a5.539,5.539,0,0,0-1.692.72,3,3,0,0,0,.108-0.792,4.168,4.168,0,0,0-1.26-3.06,4.254,4.254,0,0,0-3.132-1.26,6.207,6.207,0,0,0-2.88.648,8.021,8.021,0,0,0-2.142,1.566,31.357,31.357,0,0,0-2.034,2.394,19,19,0,0,1-2.34,2.61,3.346,3.346,0,0,1-2.268.846,4.935,4.935,0,0,1-2.394-.576,1.8,1.8,0,0,1-1.062-1.656,3.021,3.021,0,0,1,.144-0.99,2.487,2.487,0,0,1,.54-0.846q0.035,0,.342.072a2.313,2.313,0,0,0,.522.072,1.586,1.586,0,0,0,1.26-.594,2.178,2.178,0,0,0,.5-1.458,2.118,2.118,0,0,0-.846-1.746A3.19,3.19,0,0,0,24.9,20.72a2.811,2.811,0,0,0-2.538,1.638,7.565,7.565,0,0,0-.918,3.762,8.886,8.886,0,0,0,2.484,6.048,17.223,17.223,0,0,0,6.336,4.374,19.92,19.92,0,0,0,7.7,1.6,9.909,9.909,0,0,0,3.762-.738A7.328,7.328,0,0,0,44.678,35.3a4.867,4.867,0,0,0,1.134-3.2,3.122,3.122,0,0,0-.576-1.854A3.962,3.962,0,0,0,43.832,29a0.2,0.2,0,0,1-.108-0.162c0-.06.06-0.1,0.18-0.126a3.869,3.869,0,0,1,1.116-.324q0.683-.108.972-0.18a8.9,8.9,0,0,0,1.764,3.474,3.7,3.7,0,0,0,2.916,1.458,3.9,3.9,0,0,0,1.044-.162A8.809,8.809,0,0,0,52.8,32.6a5.722,5.722,0,0,0,.558-0.2,1.916,1.916,0,0,1,.63-0.162,1.14,1.14,0,0,1,.972.666,3.313,3.313,0,0,1,.4,1.71,3.539,3.539,0,0,1-.45,1.746,1.276,1.276,0,0,1-1.062.81,1.42,1.42,0,0,1-.648-0.4,3.932,3.932,0,0,0-.648-0.378,1.607,1.607,0,0,0-.648-0.126,1.168,1.168,0,0,0-1.008.5,1.991,1.991,0,0,0-.36,1.188,2.14,2.14,0,0,0,.918,1.8,3.545,3.545,0,0,0,2.178.684,3.206,3.206,0,0,0,2.088-.7,8.45,8.45,0,0,0,1.656-1.89,3.253,3.253,0,0,0,1.764-.4,1.626,1.626,0,0,0,.612-1.476,6.179,6.179,0,0,0-1.116-3.546,6.66,6.66,0,0,0-3.024-2.43h0Zm-4.212.144q-1.116,0-2.412-2.2l0.792,0.036a4.948,4.948,0,0,1,1.746.378,1.053,1.053,0,0,1,.81.7,1.07,1.07,0,0,1-.288.792,0.9,0.9,0,0,1-.648.288h0Zm27.9,15.3A9.081,9.081,0,0,0,85.033,43.4a13.817,13.817,0,0,0,4.158-6.048,0.665,0.665,0,0,0-.054-0.648,0.594,0.594,0,0,0-.522-0.324,0.569,0.569,0,0,0-.45.252,8.024,8.024,0,0,0-.486.72,12.145,12.145,0,0,1-3.384,4.14,6.432,6.432,0,0,1-3.816,1.44,3.7,3.7,0,0,1-3.1-1.584A7.524,7.524,0,0,1,76.2,36.776,38.246,38.246,0,0,1,77.509,27a24.647,24.647,0,0,1,3.708-8.28q2.394-3.294,5.454-3.294a3,3,0,0,1,1.746.594,4.989,4.989,0,0,1,1.422,1.566,5.125,5.125,0,0,1,.828,3.1q-0.108,1.872.612,1.872a0.72,0.72,0,0,0,.558-0.216,1.465,1.465,0,0,0,.306-0.612,33.245,33.245,0,0,1,1.278-3.438,14.1,14.1,0,0,1,1.458-2.754,0.963,0.963,0,0,0,.18-0.468,0.385,0.385,0,0,0-.468-0.4,2.217,2.217,0,0,0-1.08.4,1.927,1.927,0,0,1-.936.216,3.561,3.561,0,0,1-1.08-.2q-0.613-.2-0.828-0.27-1.008-.324-1.908-0.522a9.44,9.44,0,0,0-2.016-.2,14.664,14.664,0,0,0-9.036,2.826,17.615,17.615,0,0,0-5.724,7.452,25.247,25.247,0,0,0-1.944,9.882,13.26,13.26,0,0,0,1.278,6.03,9.31,9.31,0,0,0,3.4,3.852,8.536,8.536,0,0,0,4.572,1.314h0ZM102.4,38.5a14.066,14.066,0,0,0,7.47-2.124,15.928,15.928,0,0,0,5.526-5.634,14.5,14.5,0,0,0,2.052-7.434,9.748,9.748,0,0,0-1.152-4.788,8.481,8.481,0,0,0-3.114-3.258,8.381,8.381,0,0,0-4.374-1.17,14.042,14.042,0,0,0-7.488,2.124,15.83,15.83,0,0,0-5.49,5.634A14.6,14.6,0,0,0,93.8,29.288a9.871,9.871,0,0,0,1.134,4.788A8.313,8.313,0,0,0,102.4,38.5h0Zm-0.036-1.4a2.543,2.543,0,0,1-2.376-1.512,8.445,8.445,0,0,1-.792-3.924,20.3,20.3,0,0,1,1.422-6.84,23.8,23.8,0,0,1,3.636-6.678q2.214-2.789,4.518-2.79a2.608,2.608,0,0,1,2.412,1.6,8.693,8.693,0,0,1,.828,4.014,19.941,19.941,0,0,1-1.422,6.768,22.84,22.84,0,0,1-3.672,6.606q-2.25,2.754-4.554,2.754h0Zm56.16,13.5a9.327,9.327,0,0,0,4.014-.792,5.932,5.932,0,0,0,2.5-2.052,4.62,4.62,0,0,0,.828-2.556,3.808,3.808,0,0,0-.846-2.5,2.771,2.771,0,0,0-2.25-1.026,2.452,2.452,0,0,0-1.818.666,2.266,2.266,0,0,0-.666,1.674,1.3,1.3,0,0,0,.2.756,5.8,5.8,0,0,0,.666.756,5.628,5.628,0,0,1,.684.792,1.535,1.535,0,0,1,.216.864,1.454,1.454,0,0,1-.648,1.3,3.961,3.961,0,0,1-2.124.432,6.26,6.26,0,0,1-3.51-1.656,27.76,27.76,0,0,1-4.5-4.716,53.264,53.264,0,0,1-4.59-7.02,4.34,4.34,0,0,1-.576-2.124,6.114,6.114,0,0,1,.144-1.152,109.772,109.772,0,0,1,3.438-12.114q1.493-3.977,2.736-5.166a4.1,4.1,0,0,1,2.934-1.188,2.147,2.147,0,0,1,1.368.486,8.564,8.564,0,0,1,1.26,1.278q0.108,0.144.378,0.486a6.529,6.529,0,0,0,.522.594,0.753,0.753,0,0,0,.54.252,1.806,1.806,0,0,0,1.314-.684,2.606,2.606,0,0,0-.774-4.014,6.238,6.238,0,0,0-3.384-.882,7.513,7.513,0,0,0-5.292,1.728,12.692,12.692,0,0,0-3.1,5.4q-1.226,3.672-3.24,12.168a0.615,0.615,0,0,1-.324.54,0.424,0.424,0,0,1-.324-0.324q-0.972-1.979-2.2-4.824T139.7,20.144l-1.98-4.86a1.34,1.34,0,0,0-.558-0.612,1.989,1.989,0,0,0-.918-0.18q-8.316,0-12.546,2.394t-4.23,6.606a4.65,4.65,0,0,0,1.08,3.042,3.355,3.355,0,0,0,2.7,1.314,2.4,2.4,0,0,0,1.728-.558,1.736,1.736,0,0,0,.576-1.278,1.511,1.511,0,0,0-.342-0.99,1.369,1.369,0,0,0-.918-0.486,2.755,2.755,0,0,1-1.71-.666,3.134,3.134,0,0,1-.414-1.926,3.667,3.667,0,0,1,1.26-2.664,9.124,9.124,0,0,1,3.132-1.944,10.014,10.014,0,0,1,3.6-.72,5.347,5.347,0,0,1,1.926.234,0.879,0.879,0,0,1,.522.882,3.857,3.857,0,0,1-.144.972,95.642,95.642,0,0,1-3.186,11.3,13.886,13.886,0,0,1-2.664,4.9,4.171,4.171,0,0,1-2.934,1.152,2.083,2.083,0,0,1-1.278-.414,6.76,6.76,0,0,1-1.134-1.1c-0.121-.144-0.288-0.354-0.5-0.63a7.664,7.664,0,0,0-.594-0.684,0.794,0.794,0,0,0-.558-0.27,1.8,1.8,0,0,0-1.314.684,2.549,2.549,0,0,0-.63,1.8,2.576,2.576,0,0,0,1.4,2.214,6.233,6.233,0,0,0,3.384.882,7.532,7.532,0,0,0,4.968-1.476,9.983,9.983,0,0,0,2.808-4.284q1.042-2.808,2.664-9.18l0.576-2.232a0.825,0.825,0,0,1,.36-0.756,0.243,0.243,0,0,1,.162.126,0.978,0.978,0,0,1,.126.234A133.191,133.191,0,0,0,142.2,37.3a39.445,39.445,0,0,0,7.938,9.9,12.882,12.882,0,0,0,8.388,3.4h0Zm27.611-40a3.46,3.46,0,0,0-1.53.486,1.356,1.356,0,0,0-.918.99,6.179,6.179,0,0,0,.468,1.728,11.229,11.229,0,0,1,.4,1.116l-3.024-.4a111.086,111.086,0,0,0-12.924-1.476,17.735,17.735,0,0,0-6.948,1.224,10.38,10.38,0,0,0-4.32,3.114,6.332,6.332,0,0,0-1.44,3.87,4.627,4.627,0,0,0,.7,2.448,5.077,5.077,0,0,0,1.962,1.836,5.861,5.861,0,0,0,2.844.684,5.143,5.143,0,0,0,1.962-.36,3.9,3.9,0,0,0,1.4-.918,1.667,1.667,0,0,0,.522-1.134,1.909,1.909,0,0,0-.45-1.26,1.38,1.38,0,0,0-1.1-.54,2.107,2.107,0,0,0-1.4.756q-0.108.108-.288,0.324a3.953,3.953,0,0,1-.45.45,0.783,0.783,0,0,1-.486.234,2.454,2.454,0,0,1-1.89-.756,2.694,2.694,0,0,1-.7-1.908,5.239,5.239,0,0,1,.972-2.88,7.372,7.372,0,0,1,2.844-2.448,9.573,9.573,0,0,1,4.464-.972,14.615,14.615,0,0,1,3.852.612l-6.012,19.08a2.549,2.549,0,0,1-1.008,1.476,7.677,7.677,0,0,1-2.232.792,1.285,1.285,0,0,0-1.044.792,0.324,0.324,0,0,0,.126.378,0.691,0.691,0,0,0,.45.162q1.4,0,2.952-.108,2.016-.072,2.7-0.072L169.362,38q2.16,0.072,2.952.072a0.963,0.963,0,0,0,.612-0.2,0.668,0.668,0,0,0,.252-0.558,0.692,0.692,0,0,0-.576-0.54,5.069,5.069,0,0,1-1.53-.666,1.06,1.06,0,0,1-.45-0.882,2.215,2.215,0,0,1,.144-0.756l5.328-16.992q1.728,0.648,2.97.99a8.872,8.872,0,0,0,2.358.342,4.042,4.042,0,0,0,2.358-1.242,16.5,16.5,0,0,0,2.538-2.79,4.885,4.885,0,0,0,1.116-2.2,2.527,2.527,0,0,0-.378-1.386l-0.378-.594h-0.54Zm4.356,35.1a10.487,10.487,0,0,0,4.176-.9,11.683,11.683,0,0,0,3.834-2.736,13.3,13.3,0,0,0,2.754-4.464,0.668,0.668,0,0,0-.054-0.648,0.594,0.594,0,0,0-.522-0.324,0.568,0.568,0,0,0-.45.252,8.111,8.111,0,0,0-.486.72,9.524,9.524,0,0,1-3.4,3.654,7.817,7.817,0,0,1-3.942,1.134,5.437,5.437,0,0,1-2.628-.684,5.233,5.233,0,0,1-2.088-2.25,8.542,8.542,0,0,1-.828-4.014,7.92,7.92,0,0,1,.864-3.546,7.794,7.794,0,0,1,2.376-2.862,5.456,5.456,0,0,1,3.312-1.116l1.26,0.108q2.7,0.252,3.168.252,1.763,0,1.764-1.116a1.178,1.178,0,0,0-.378-0.918,1.154,1.154,0,0,0-.774-0.342q-0.756,0-2.2.144a17.344,17.344,0,0,1-2.2.108,1.67,1.67,0,0,1-1.566-1.1,6.213,6.213,0,0,1-.522-2.682,8.164,8.164,0,0,1,.612-3.1A6.025,6.025,0,0,1,194.4,16.8a4.471,4.471,0,0,1,2.9-.972,3.821,3.821,0,0,1,2.124.468,2.716,2.716,0,0,1,1.008,1.368,8.355,8.355,0,0,1,.36,2.556,0.516,0.516,0,0,0,.18.432,0.669,0.669,0,0,0,.432.144,0.863,0.863,0,0,0,.5-0.18,0.994,0.994,0,0,0,.36-0.468,32.771,32.771,0,0,0,.972-4.356,0.748,0.748,0,0,0-.468-0.972,17.259,17.259,0,0,0-2.538-.612,21.1,21.1,0,0,0-3.078-.18,13.713,13.713,0,0,0-5.508,1.062,9.864,9.864,0,0,0-3.834,2.772,5.535,5.535,0,0,0-1.386,3.51A4.79,4.79,0,0,0,187.47,24.3,5.012,5.012,0,0,0,190.6,26.12a0.2,0.2,0,0,1,.18.288,0.456,0.456,0,0,1-.36.324,12.816,12.816,0,0,0-5.4,2.142,10.4,10.4,0,0,0-3.33,3.8,10.028,10.028,0,0,0-1.1,4.536,7.729,7.729,0,0,0,1.224,4.158,8.856,8.856,0,0,0,3.474,3.15,10.975,10.975,0,0,0,5.2,1.188h0Zm55.26,4.9a9.327,9.327,0,0,0,4.014-.792,5.932,5.932,0,0,0,2.5-2.052A4.62,4.62,0,0,0,253.1,45.2a3.808,3.808,0,0,0-.846-2.5A2.771,2.771,0,0,0,250,41.672a2.452,2.452,0,0,0-1.818.666,2.266,2.266,0,0,0-.666,1.674,1.3,1.3,0,0,0,.2.756,5.8,5.8,0,0,0,.666.756,5.628,5.628,0,0,1,.684.792,1.535,1.535,0,0,1,.216.864,1.454,1.454,0,0,1-.648,1.3,3.961,3.961,0,0,1-2.124.432A6.26,6.26,0,0,1,243,47.252a27.76,27.76,0,0,1-4.5-4.716,53.264,53.264,0,0,1-4.59-7.02,4.34,4.34,0,0,1-.576-2.124,6.114,6.114,0,0,1,.144-1.152,109.772,109.772,0,0,1,3.438-12.114q1.493-3.977,2.736-5.166a4.1,4.1,0,0,1,2.934-1.188,2.147,2.147,0,0,1,1.368.486,8.564,8.564,0,0,1,1.26,1.278q0.108,0.144.378,0.486a6.529,6.529,0,0,0,.522.594,0.753,0.753,0,0,0,.54.252,1.806,1.806,0,0,0,1.314-.684,2.606,2.606,0,0,0-.774-4.014,6.238,6.238,0,0,0-3.384-.882,7.513,7.513,0,0,0-5.292,1.728,12.692,12.692,0,0,0-3.1,5.4q-1.226,3.672-3.24,12.168a0.615,0.615,0,0,1-.324.54,0.424,0.424,0,0,1-.324-0.324q-0.972-1.979-2.2-4.824t-2.412-5.832l-1.98-4.86a1.34,1.34,0,0,0-.558-0.612,1.989,1.989,0,0,0-.918-0.18q-8.316,0-12.546,2.394t-4.23,6.606a4.65,4.65,0,0,0,1.08,3.042,3.355,3.355,0,0,0,2.7,1.314,2.4,2.4,0,0,0,1.728-.558,1.736,1.736,0,0,0,.576-1.278,1.511,1.511,0,0,0-.342-0.99,1.369,1.369,0,0,0-.918-0.486,2.755,2.755,0,0,1-1.71-.666,3.134,3.134,0,0,1-.414-1.926,3.667,3.667,0,0,1,1.26-2.664,9.124,9.124,0,0,1,3.132-1.944,10.014,10.014,0,0,1,3.6-.72,5.347,5.347,0,0,1,1.926.234,0.879,0.879,0,0,1,.522.882,3.857,3.857,0,0,1-.144.972,95.642,95.642,0,0,1-3.186,11.3,13.886,13.886,0,0,1-2.664,4.9,4.171,4.171,0,0,1-2.934,1.152,2.083,2.083,0,0,1-1.278-.414,6.76,6.76,0,0,1-1.134-1.1c-0.121-.144-0.288-0.354-0.5-0.63a7.664,7.664,0,0,0-.594-0.684,0.794,0.794,0,0,0-.558-0.27,1.8,1.8,0,0,0-1.314.684,2.549,2.549,0,0,0-.63,1.8,2.576,2.576,0,0,0,1.4,2.214,6.233,6.233,0,0,0,3.384.882,7.532,7.532,0,0,0,4.968-1.476,9.983,9.983,0,0,0,2.808-4.284q1.042-2.808,2.664-9.18l0.576-2.232a0.825,0.825,0,0,1,.36-0.756,0.243,0.243,0,0,1,.162.126,0.978,0.978,0,0,1,.126.234A133.191,133.191,0,0,0,229.428,37.3a39.445,39.445,0,0,0,7.938,9.9,12.882,12.882,0,0,0,8.388,3.4h0Zm27.611-40a3.46,3.46,0,0,0-1.53.486,1.356,1.356,0,0,0-.918.99,6.179,6.179,0,0,0,.468,1.728,11.229,11.229,0,0,1,.4,1.116l-3.024-.4a111.086,111.086,0,0,0-12.924-1.476,17.735,17.735,0,0,0-6.948,1.224,10.38,10.38,0,0,0-4.32,3.114,6.332,6.332,0,0,0-1.44,3.87,4.627,4.627,0,0,0,.7,2.448,5.077,5.077,0,0,0,1.962,1.836,5.861,5.861,0,0,0,2.844.684,5.143,5.143,0,0,0,1.962-.36,3.9,3.9,0,0,0,1.4-.918,1.667,1.667,0,0,0,.522-1.134,1.909,1.909,0,0,0-.45-1.26,1.38,1.38,0,0,0-1.1-.54,2.107,2.107,0,0,0-1.4.756q-0.108.108-.288,0.324a3.953,3.953,0,0,1-.45.45,0.783,0.783,0,0,1-.486.234,2.454,2.454,0,0,1-1.89-.756,2.694,2.694,0,0,1-.7-1.908,5.239,5.239,0,0,1,.972-2.88,7.372,7.372,0,0,1,2.844-2.448,9.573,9.573,0,0,1,4.464-.972,14.615,14.615,0,0,1,3.852.612l-6.012,19.08a2.549,2.549,0,0,1-1.008,1.476,7.677,7.677,0,0,1-2.232.792,1.285,1.285,0,0,0-1.044.792,0.324,0.324,0,0,0,.126.378,0.691,0.691,0,0,0,.45.162q1.4,0,2.952-.108,2.016-.072,2.7-0.072L256.589,38q2.16,0.072,2.952.072a0.963,0.963,0,0,0,.612-0.2,0.668,0.668,0,0,0,.252-0.558,0.692,0.692,0,0,0-.576-0.54,5.069,5.069,0,0,1-1.53-.666,1.06,1.06,0,0,1-.45-0.882,2.215,2.215,0,0,1,.144-0.756l5.328-16.992q1.728,0.648,2.97.99a8.872,8.872,0,0,0,2.358.342,4.042,4.042,0,0,0,2.358-1.242,16.5,16.5,0,0,0,2.538-2.79,4.885,4.885,0,0,0,1.116-2.2,2.527,2.527,0,0,0-.378-1.386L273.9,10.6h-0.54Zm3.06,34.812A11.332,11.332,0,0,0,281.7,44.1a10.749,10.749,0,0,0,5.778-9.81,9.468,9.468,0,0,0-1.026-4.356,32.668,32.668,0,0,0-2.9-4.536q-1.764-2.376-2.556-3.708a5.288,5.288,0,0,1-.792-2.736,3.309,3.309,0,0,1,.936-2.556,4.014,4.014,0,0,1,2.808-.864,3.811,3.811,0,0,1,3.078,1.4,5.661,5.661,0,0,1,1.17,3.744,3.265,3.265,0,0,0,.162,1.224,0.542,0.542,0,0,0,.522.36,0.719,0.719,0,0,0,.558-0.216,1.461,1.461,0,0,0,.306-0.612,26.351,26.351,0,0,1,1.224-3.258,14.262,14.262,0,0,1,1.44-2.646,0.961,0.961,0,0,0,.18-0.468,0.385,0.385,0,0,0-.468-0.4,2.217,2.217,0,0,0-1.08.4,1.926,1.926,0,0,1-.936.216,3.993,3.993,0,0,1-1.152-.2q-0.648-.2-0.9-0.27a14.731,14.731,0,0,0-4.392-.72,10.363,10.363,0,0,0-4.518.954,7.8,7.8,0,0,0-3.132,2.592,6.219,6.219,0,0,0-1.134,3.618,8.422,8.422,0,0,0,.954,3.906,40.524,40.524,0,0,0,2.79,4.482,37.8,37.8,0,0,1,2.574,4.068,7.079,7.079,0,0,1,.846,3.312,5.922,5.922,0,0,1-.846,3.24,5.476,5.476,0,0,1-2.232,2.016,6.639,6.639,0,0,1-5.8.036,5.539,5.539,0,0,1-2.2-1.872,5,5,0,0,1-.846-2.916,3.1,3.1,0,0,1,.7-2.016,2.309,2.309,0,0,1,1.89-.864,4.344,4.344,0,0,1,1.944.5,8.443,8.443,0,0,1,.972.576,3.652,3.652,0,0,0,1.26.576,1.462,1.462,0,0,0,1.206-.846,2.983,2.983,0,0,0,.522-1.53,2.007,2.007,0,0,0-1.26-1.836,6.049,6.049,0,0,0-2.808-.648,7.364,7.364,0,0,0-3.132.72,6.221,6.221,0,0,0-3.6,5.9,6.761,6.761,0,0,0,1.152,3.96,7.273,7.273,0,0,0,3.114,2.52,10.647,10.647,0,0,0,4.338.864h0ZM304.4,30.008a2.292,2.292,0,0,1-.216-0.972V28.46a2.319,2.319,0,0,1,1.008-1.764,7.648,7.648,0,0,1,2.466-1.314A8.449,8.449,0,0,1,310.3,24.9c0.311,0,.756.024,1.332,0.072a3.275,3.275,0,0,0-.7-1.6,1.67,1.67,0,0,0-1.17-.846,0.669,0.669,0,0,0-.36.09,2.091,2.091,0,0,0-.4.378,4.6,4.6,0,0,1-.936.846,2.429,2.429,0,0,1-1.332.306,3.445,3.445,0,0,1-2.574-1.1,3.625,3.625,0,0,1-1.062-2.61,1.986,1.986,0,0,1,.486-1.35,1.4,1.4,0,0,1,1.062-.558,1.588,1.588,0,0,1,1.26.972,1.114,1.114,0,0,0,.432.468,0.733,0.733,0,0,0,.432-0.468,2.708,2.708,0,0,1,.558-0.648,1.294,1.294,0,0,1,.846-0.252,5.5,5.5,0,0,1,3.006.936A7.259,7.259,0,0,1,313.541,22a6.27,6.27,0,0,1,.9,3.222v0.216a5.555,5.555,0,0,1,1.692.72,3,3,0,0,1-.108-0.792,4.163,4.163,0,0,1,1.26-3.06,4.253,4.253,0,0,1,3.132-1.26,6.211,6.211,0,0,1,2.88.648,8.047,8.047,0,0,1,2.142,1.566q0.882,0.918,2.034,2.394a18.975,18.975,0,0,0,2.34,2.61,3.346,3.346,0,0,0,2.268.846,4.94,4.94,0,0,0,2.394-.576,1.8,1.8,0,0,0,1.062-1.656,3.054,3.054,0,0,0-.144-0.99,2.5,2.5,0,0,0-.54-0.846,3.467,3.467,0,0,0-.342.072,2.316,2.316,0,0,1-.522.072,1.585,1.585,0,0,1-1.26-.594,2.171,2.171,0,0,1-.5-1.458,2.117,2.117,0,0,1,.846-1.746,3.187,3.187,0,0,1,2.034-.666,2.811,2.811,0,0,1,2.538,1.638,7.565,7.565,0,0,1,.918,3.762,8.886,8.886,0,0,1-2.484,6.048,17.226,17.226,0,0,1-6.336,4.374,19.926,19.926,0,0,1-7.7,1.6,9.9,9.9,0,0,1-3.762-.738,7.325,7.325,0,0,1-2.952-2.106,4.867,4.867,0,0,1-1.134-3.2,3.119,3.119,0,0,1,.576-1.854,3.942,3.942,0,0,1,1.4-1.242,0.2,0.2,0,0,0,.108-0.162c0-.06-0.06-0.1-0.18-0.126a3.881,3.881,0,0,0-1.116-.324q-0.684-.108-0.972-0.18a8.914,8.914,0,0,1-1.764,3.474,3.7,3.7,0,0,1-2.916,1.458,3.886,3.886,0,0,1-1.044-.162,8.762,8.762,0,0,1-1.08-.378,5.572,5.572,0,0,1-.558-0.2,1.918,1.918,0,0,0-.63-0.162,1.139,1.139,0,0,0-.972.666,3.3,3.3,0,0,0-.4,1.71,3.526,3.526,0,0,0,.45,1.746,1.274,1.274,0,0,0,1.062.81,1.424,1.424,0,0,0,.648-0.4,3.837,3.837,0,0,1,.648-0.378,1.6,1.6,0,0,1,.648-0.126,1.168,1.168,0,0,1,1.008.5,2,2,0,0,1,.36,1.188,2.14,2.14,0,0,1-.918,1.8,3.546,3.546,0,0,1-2.178.684,3.206,3.206,0,0,1-2.088-.7,8.421,8.421,0,0,1-1.656-1.89,3.249,3.249,0,0,1-1.764-.4,1.623,1.623,0,0,1-.612-1.476,6.176,6.176,0,0,1,1.116-3.546,6.648,6.648,0,0,1,3.024-2.43h0Zm4.212,0.144q1.114,0,2.412-2.2l-0.792.036a4.942,4.942,0,0,0-1.746.378,1.053,1.053,0,0,0-.81.7,1.065,1.065,0,0,0,.288.792,0.894,0.894,0,0,0,.648.288h0Z"/>
</svg>
