<svg xmlns="http://www.w3.org/2000/svg" width="300" height="60" viewBox="0 0 300 60">
  <metadata><?xpacket begin="﻿" id="W5M0MpCehiHzreSzNTczkc9d"?>
<x:xmpmeta xmlns:x="adobe:ns:meta/" x:xmptk="Adobe XMP Core 5.6-c142 79.160924, 2017/07/13-01:06:39        ">
   <rdf:RDF xmlns:rdf="http://www.w3.org/1999/02/22-rdf-syntax-ns#">
      <rdf:Description rdf:about=""/>
   </rdf:RDF>
</x:xmpmeta>
                                                                                                    
                                                                                                    
                                                                                                    
                                                                                                    
                                                                                                    
                                                                                                    
                                                                                                    
                                                                                                    
                                                                                                    
                                                                                                    
                                                                                                    
                                                                                                    
                                                                                                    
                                                                                                    
                                                                                                    
                                                                                                    
                                                                                                    
                                                                                                    
                                                                                                    
                                                                                                    
                           
<?xpacket end="w"?></metadata>
<defs>
    <style>
      .cls-1 {
        fill: #222;
        fill-rule: evenodd;
      }
    </style>
  </defs>
  <path id="_POETRY_" data-name="☙ POETRY ❧" class="cls-1" d="M50.569,34.008a2.292,2.292,0,0,0,.216-0.972V32.46A2.32,2.32,0,0,0,49.777,30.7a7.66,7.66,0,0,0-2.466-1.314,8.449,8.449,0,0,0-2.646-.486q-0.468,0-1.332.072a3.253,3.253,0,0,1,.7-1.6,1.669,1.669,0,0,1,1.17-.846,0.672,0.672,0,0,1,.36.09,2.137,2.137,0,0,1,.4.378,4.564,4.564,0,0,0,.936.846,2.429,2.429,0,0,0,1.332.306,3.447,3.447,0,0,0,2.574-1.1,3.627,3.627,0,0,0,1.062-2.61,1.986,1.986,0,0,0-.486-1.35,1.4,1.4,0,0,0-1.062-.558,1.586,1.586,0,0,0-1.26.972,1.114,1.114,0,0,1-.432.468,0.732,0.732,0,0,1-.432-0.468,2.742,2.742,0,0,0-.558-0.648,1.3,1.3,0,0,0-.846-0.252,5.5,5.5,0,0,0-3.006.936A7.256,7.256,0,0,0,41.425,26a6.259,6.259,0,0,0-.9,3.222v0.216a5.54,5.54,0,0,0-1.692.72,3,3,0,0,0,.108-0.792,4.168,4.168,0,0,0-1.26-3.06,4.254,4.254,0,0,0-3.132-1.26,6.207,6.207,0,0,0-2.88.648,8.023,8.023,0,0,0-2.142,1.566,31.379,31.379,0,0,0-2.034,2.394,18.994,18.994,0,0,1-2.34,2.61,3.346,3.346,0,0,1-2.268.846,4.936,4.936,0,0,1-2.394-.576,1.8,1.8,0,0,1-1.062-1.656,3.024,3.024,0,0,1,.144-0.99,2.491,2.491,0,0,1,.54-0.846q0.036,0,.342.072a2.313,2.313,0,0,0,.522.072,1.586,1.586,0,0,0,1.26-.594,2.178,2.178,0,0,0,.5-1.458,2.117,2.117,0,0,0-.846-1.746,3.19,3.19,0,0,0-2.034-.666,2.811,2.811,0,0,0-2.538,1.638,7.565,7.565,0,0,0-.918,3.762,8.886,8.886,0,0,0,2.484,6.048,17.224,17.224,0,0,0,6.336,4.374,19.921,19.921,0,0,0,7.7,1.6,9.909,9.909,0,0,0,3.762-.738A7.328,7.328,0,0,0,39.643,39.3a4.867,4.867,0,0,0,1.134-3.2,3.121,3.121,0,0,0-.576-1.854A3.962,3.962,0,0,0,38.8,33a0.2,0.2,0,0,1-.108-0.162c0-.06.06-0.1,0.18-0.126a3.869,3.869,0,0,1,1.116-.324q0.684-.108.972-0.18a8.9,8.9,0,0,0,1.764,3.474,3.7,3.7,0,0,0,2.916,1.458,3.894,3.894,0,0,0,1.044-.162,8.8,8.8,0,0,0,1.08-.378,5.712,5.712,0,0,0,.558-0.2,1.917,1.917,0,0,1,.63-0.162,1.14,1.14,0,0,1,.972.666,3.313,3.313,0,0,1,.4,1.71,3.539,3.539,0,0,1-.45,1.746,1.276,1.276,0,0,1-1.062.81,1.421,1.421,0,0,1-.648-0.4,3.932,3.932,0,0,0-.648-0.378,1.606,1.606,0,0,0-.648-0.126,1.168,1.168,0,0,0-1.008.5,1.991,1.991,0,0,0-.36,1.188,2.14,2.14,0,0,0,.918,1.8,3.545,3.545,0,0,0,2.178.684,3.206,3.206,0,0,0,2.088-.7,8.45,8.45,0,0,0,1.656-1.89,3.253,3.253,0,0,0,1.764-.4,1.626,1.626,0,0,0,.612-1.476,6.178,6.178,0,0,0-1.116-3.546,6.66,6.66,0,0,0-3.024-2.43h0Zm-4.212.144q-1.116,0-2.412-2.2l0.792,0.036a4.948,4.948,0,0,1,1.746.378,1.053,1.053,0,0,1,.81.7,1.07,1.07,0,0,1-.288.792,0.9,0.9,0,0,1-.648.288h0Zm25.128,7.956q1.332,0,2.844-.108,1.944-.072,2.628-0.072L79.873,42l3.1,0.072a2.414,2.414,0,0,0,.828-0.144,0.472,0.472,0,0,0,.4-0.4,0.85,0.85,0,0,0-.792-0.756,6.657,6.657,0,0,1-1.836-.612,1.061,1.061,0,0,1-.54-0.972,4.33,4.33,0,0,1,.144-0.72l4.824-15.516a14.529,14.529,0,0,1,.756-2.052,2.21,2.21,0,0,1,.594-0.828,1.245,1.245,0,0,1,.7-0.18,3.187,3.187,0,0,1,2.5,1.026q0.918,1.026.918,4.014a8.829,8.829,0,0,1-.576,3.1A7.329,7.329,0,0,1,89.2,30.7a4.988,4.988,0,0,1-2.7,1.4l-1.4.252Q84.3,32.5,84.3,32.928a0.667,0.667,0,0,0,.36.63,2.945,2.945,0,0,0,1.3.2,13.021,13.021,0,0,0,5.616-1.17,9.479,9.479,0,0,0,3.888-3.222,7.915,7.915,0,0,0,1.4-4.572,5.49,5.49,0,0,0-1.458-4.14,7.624,7.624,0,0,0-4.032-1.872,38.946,38.946,0,0,0-6.714-.468q-8.928,0-13.284,2.3t-4.356,6.516a4.65,4.65,0,0,0,1.08,3.042,3.355,3.355,0,0,0,2.7,1.314,2.392,2.392,0,0,0,1.728-.558,1.733,1.733,0,0,0,.576-1.278,1.506,1.506,0,0,0-.342-0.99,1.366,1.366,0,0,0-.918-0.486,2.757,2.757,0,0,1-1.71-.666,3.14,3.14,0,0,1-.414-1.926A3.762,3.762,0,0,1,71,22.884a9.438,9.438,0,0,1,3.168-2.016,9.735,9.735,0,0,1,3.618-.756,6.111,6.111,0,0,1,1.962.216,0.814,0.814,0,0,1,.558.828,3.494,3.494,0,0,1-.216,1.044L75.013,38.508a2.74,2.74,0,0,1-.936,1.512,6.15,6.15,0,0,1-2.124.756q-1.116.252-1.116,0.792a0.467,0.467,0,0,0,.216.378,0.718,0.718,0,0,0,.432.162h0ZM105.9,42.5a14.068,14.068,0,0,0,7.47-2.124,15.937,15.937,0,0,0,5.526-5.634,14.5,14.5,0,0,0,2.052-7.434,9.759,9.759,0,0,0-1.152-4.788,8.5,8.5,0,0,0-3.114-3.258,8.386,8.386,0,0,0-4.374-1.17,14.039,14.039,0,0,0-7.488,2.124,15.828,15.828,0,0,0-5.49,5.634A14.6,14.6,0,0,0,97.3,33.288a9.871,9.871,0,0,0,1.134,4.788A8.314,8.314,0,0,0,105.9,42.5h0Zm-0.036-1.4a2.541,2.541,0,0,1-2.376-1.512,8.434,8.434,0,0,1-.792-3.924,20.286,20.286,0,0,1,1.422-6.84,23.778,23.778,0,0,1,3.636-6.678q2.214-2.789,4.518-2.79a2.61,2.61,0,0,1,2.412,1.6,8.705,8.705,0,0,1,.828,4.014,19.965,19.965,0,0,1-1.422,6.768,22.887,22.887,0,0,1-3.672,6.606q-2.251,2.754-4.554,2.754h0Zm23.759,8.6a10.483,10.483,0,0,0,4.176-.9,11.662,11.662,0,0,0,3.834-2.736,13.3,13.3,0,0,0,2.754-4.464,0.663,0.663,0,0,0-.054-0.648,0.594,0.594,0,0,0-.522-0.324,0.569,0.569,0,0,0-.45.252,8.111,8.111,0,0,0-.486.72,9.524,9.524,0,0,1-3.4,3.654,7.812,7.812,0,0,1-3.942,1.134,5.44,5.44,0,0,1-2.628-.684,5.239,5.239,0,0,1-2.088-2.25,8.554,8.554,0,0,1-.828-4.014,7.92,7.92,0,0,1,.864-3.546,7.794,7.794,0,0,1,2.376-2.862,5.458,5.458,0,0,1,3.312-1.116l1.26,0.108q2.7,0.252,3.168.252,1.764,0,1.764-1.116a1.178,1.178,0,0,0-.378-0.918,1.154,1.154,0,0,0-.774-0.342q-0.756,0-2.2.144a17.337,17.337,0,0,1-2.2.108,1.672,1.672,0,0,1-1.566-1.1,6.213,6.213,0,0,1-.522-2.682,8.183,8.183,0,0,1,.612-3.1A6.034,6.034,0,0,1,133.53,20.8a4.473,4.473,0,0,1,2.9-.972,3.819,3.819,0,0,1,2.124.468,2.711,2.711,0,0,1,1.008,1.368,8.324,8.324,0,0,1,.36,2.556,0.519,0.519,0,0,0,.18.432,0.669,0.669,0,0,0,.432.144,0.861,0.861,0,0,0,.5-0.18,0.988,0.988,0,0,0,.36-0.468,32.771,32.771,0,0,0,.972-4.356,0.748,0.748,0,0,0-.468-0.972,17.2,17.2,0,0,0-2.538-.612,21.1,21.1,0,0,0-3.078-.18,13.713,13.713,0,0,0-5.508,1.062,9.879,9.879,0,0,0-3.834,2.772,5.535,5.535,0,0,0-1.386,3.51A4.8,4.8,0,0,0,126.6,28.3a5.012,5.012,0,0,0,3.132,1.818,0.2,0.2,0,0,1,.18.288,0.455,0.455,0,0,1-.36.324,12.816,12.816,0,0,0-5.4,2.142,10.4,10.4,0,0,0-3.33,3.8,10.028,10.028,0,0,0-1.1,4.536,7.738,7.738,0,0,0,1.224,4.158,8.863,8.863,0,0,0,3.474,3.15,10.978,10.978,0,0,0,5.2,1.188h0ZM176.6,14.6a3.46,3.46,0,0,0-1.53.486,1.356,1.356,0,0,0-.918.99,6.179,6.179,0,0,0,.468,1.728,11.229,11.229,0,0,1,.4,1.116l-3.024-.4a111.086,111.086,0,0,0-12.924-1.476,17.735,17.735,0,0,0-6.948,1.224,10.38,10.38,0,0,0-4.32,3.114,6.332,6.332,0,0,0-1.44,3.87,4.627,4.627,0,0,0,.7,2.448,5.077,5.077,0,0,0,1.962,1.836,5.861,5.861,0,0,0,2.844.684,5.143,5.143,0,0,0,1.962-.36,3.9,3.9,0,0,0,1.4-.918,1.667,1.667,0,0,0,.522-1.134,1.909,1.909,0,0,0-.45-1.26,1.38,1.38,0,0,0-1.1-.54,2.107,2.107,0,0,0-1.4.756q-0.108.108-.288,0.324a3.953,3.953,0,0,1-.45.45,0.783,0.783,0,0,1-.486.234,2.454,2.454,0,0,1-1.89-.756,2.694,2.694,0,0,1-.7-1.908,5.239,5.239,0,0,1,.972-2.88,7.372,7.372,0,0,1,2.844-2.448,9.573,9.573,0,0,1,4.464-.972,14.615,14.615,0,0,1,3.852.612l-6.012,19.08a2.549,2.549,0,0,1-1.008,1.476,7.677,7.677,0,0,1-2.232.792,1.285,1.285,0,0,0-1.044.792,0.324,0.324,0,0,0,.126.378,0.691,0.691,0,0,0,.45.162q1.4,0,2.952-.108,2.016-.072,2.7-0.072L159.828,42q2.16,0.072,2.952.072a0.963,0.963,0,0,0,.612-0.2,0.668,0.668,0,0,0,.252-0.558,0.692,0.692,0,0,0-.576-0.54,5.069,5.069,0,0,1-1.53-.666,1.06,1.06,0,0,1-.45-0.882,2.215,2.215,0,0,1,.144-0.756L166.56,21.48q1.728,0.648,2.97.99a8.872,8.872,0,0,0,2.358.342,4.042,4.042,0,0,0,2.358-1.242,16.5,16.5,0,0,0,2.538-2.79,4.885,4.885,0,0,0,1.116-2.2,2.527,2.527,0,0,0-.378-1.386l-0.378-.594H176.6Zm39.347,40.248a9.791,9.791,0,0,0,4.59-.99,7.026,7.026,0,0,0,2.826-2.52,5.906,5.906,0,0,0,.936-3.114,3.858,3.858,0,0,0-.864-2.574,3.153,3.153,0,0,0-2.556-1.026,3.015,3.015,0,0,0-1.8.54,1.752,1.752,0,0,0-.756,1.512,1.734,1.734,0,0,0,.324,1.1,2.6,2.6,0,0,0,.9.7,2.746,2.746,0,0,1,.972.81,1.94,1.94,0,0,1,.4,1.206,2.308,2.308,0,0,1-1.044,1.872,4.735,4.735,0,0,1-2.916.792q-2.52,0-6.138-3.672a64.77,64.77,0,0,1-7.2-8.91,110.954,110.954,0,0,1-6.174-10.062,0.3,0.3,0,0,1-.036-0.252,0.232,0.232,0,0,1,.18-0.18,9.379,9.379,0,0,0,4.482-2.3,5.388,5.388,0,0,0,1.854-4.068,4.622,4.622,0,0,0-1.962-3.906q-1.962-1.458-6.354-1.458a81.236,81.236,0,0,0-10.782.612,17.194,17.194,0,0,0-7.344,2.538,6.362,6.362,0,0,0-2.862,5.634,4.65,4.65,0,0,0,1.08,3.042,3.355,3.355,0,0,0,2.7,1.314,2.392,2.392,0,0,0,1.728-.558,1.732,1.732,0,0,0,.576-1.278,1.506,1.506,0,0,0-.342-0.99,1.364,1.364,0,0,0-.918-0.486,2.758,2.758,0,0,1-1.71-.666,3.141,3.141,0,0,1-.414-1.926,3.67,3.67,0,0,1,1.26-2.664,9.143,9.143,0,0,1,3.132-1.944,10.018,10.018,0,0,1,3.6-.72,6.11,6.11,0,0,1,1.962.216,0.814,0.814,0,0,1,.558.828,3.494,3.494,0,0,1-.216,1.044l-5.04,16.164a3.018,3.018,0,0,1-.972,1.53,5.51,5.51,0,0,1-2.124.738,1.228,1.228,0,0,0-.936.792,0.344,0.344,0,0,0,.09.378,0.561,0.561,0,0,0,.414.162q1.332,0,2.844-.108,1.944-.072,2.592-0.072L187.4,42l3.1,0.072a0.766,0.766,0,0,0,.756-0.54,0.554,0.554,0,0,0-.018-0.5,0.714,0.714,0,0,0-.45-0.252,6.441,6.441,0,0,1-1.728-.594,1,1,0,0,1-.5-0.918,2.525,2.525,0,0,1,.144-0.792l2.016-6.552a0.857,0.857,0,0,1,.756-0.72,0.95,0.95,0,0,1,.7.27,3.805,3.805,0,0,1,.594.882q12.492,22.5,23.184,22.5h0Zm-23.364-24.66a0.79,0.79,0,0,1-.972-0.792,1.852,1.852,0,0,1,.108-0.576l1.872-5.976a22.974,22.974,0,0,1,.81-2.214,2.1,2.1,0,0,1,.576-0.846,1.4,1.4,0,0,1,.774-0.18,2.109,2.109,0,0,1,1.764,1.026,4.246,4.246,0,0,1,.72,2.5,8.078,8.078,0,0,1-1.512,5.13,4.977,4.977,0,0,1-4.14,1.926h0Zm24.192,11.916q1.332,0,2.844-.108,1.944-.072,2.592-0.072T224.879,42q2.088,0.072,2.88.072a0.821,0.821,0,0,0,.576-0.2,0.765,0.765,0,0,0,.216-0.594,0.4,0.4,0,0,0-.126-0.324,1.014,1.014,0,0,0-.378-0.18,4.1,4.1,0,0,1-1.368-.612,1.06,1.06,0,0,1-.4-0.864,2.617,2.617,0,0,1,.144-0.828l2.3-7.416a30.126,30.126,0,0,1,2.16-5.094,18.226,18.226,0,0,1,3.078-4.3,4.894,4.894,0,0,1,3.4-1.728,2.056,2.056,0,0,1,1.908,1.044,2.319,2.319,0,0,1,.324.72,3.945,3.945,0,0,0,.36.7,0.5,0.5,0,0,0,.432.2A1.417,1.417,0,0,0,241.547,22a1.8,1.8,0,0,0,.468-1.062,2.347,2.347,0,0,0-1.134-2.142,4.992,4.992,0,0,0-2.682-.7,12.3,12.3,0,0,0-5.364,1.278,9.713,9.713,0,0,0-4.212,3.87q-0.072.144-.144,0.108a0.231,0.231,0,0,1-.108-0.144,7.206,7.206,0,0,0-2.34-3.654,7.5,7.5,0,0,0-4.968-1.458,11.587,11.587,0,0,0-5.6,1.278,8.923,8.923,0,0,0-3.582,3.4,9.208,9.208,0,0,0-1.224,4.68,6.674,6.674,0,0,0,.72,3.024,6.057,6.057,0,0,0,2,2.322,4.978,4.978,0,0,0,2.9.882,4.261,4.261,0,0,0,2.646-.648,1.961,1.961,0,0,0,.81-1.584,1.626,1.626,0,0,0-.5-1.188,1.755,1.755,0,0,0-1.3-.5,1.514,1.514,0,0,0-1.26.684,2.079,2.079,0,0,1-1.692.972,1.6,1.6,0,0,1-1.134-.576,4.2,4.2,0,0,1-.9-1.53,5.98,5.98,0,0,1-.342-2.034A6.493,6.493,0,0,1,213.467,24a6.41,6.41,0,0,1,2.376-2.394,6.525,6.525,0,0,1,3.348-.882,3.925,3.925,0,0,1,3.24,1.332,5.925,5.925,0,0,1,1.08,3.816,21.5,21.5,0,0,1-1.116,6.084l-2.088,6.552a3.018,3.018,0,0,1-.972,1.53,5.51,5.51,0,0,1-2.124.738,1.228,1.228,0,0,0-.936.792,0.413,0.413,0,0,0,.126.378,0.518,0.518,0,0,0,.378.162h0Zm32.652-8.1a2.292,2.292,0,0,1-.216-0.972V32.46a2.319,2.319,0,0,1,1.008-1.764,7.658,7.658,0,0,1,2.466-1.314,8.449,8.449,0,0,1,2.646-.486q0.468,0,1.332.072a3.257,3.257,0,0,0-.7-1.6,1.67,1.67,0,0,0-1.17-.846,0.671,0.671,0,0,0-.36.09,2.122,2.122,0,0,0-.4.378,4.577,4.577,0,0,1-.936.846,2.429,2.429,0,0,1-1.332.306,3.447,3.447,0,0,1-2.574-1.1,3.625,3.625,0,0,1-1.062-2.61,1.986,1.986,0,0,1,.486-1.35,1.4,1.4,0,0,1,1.062-.558,1.586,1.586,0,0,1,1.26.972,1.114,1.114,0,0,0,.432.468,0.733,0.733,0,0,0,.432-0.468,2.731,2.731,0,0,1,.558-0.648,1.3,1.3,0,0,1,.846-0.252,5.5,5.5,0,0,1,3.006.936A7.259,7.259,0,0,1,258.575,26a6.261,6.261,0,0,1,.9,3.222v0.216a5.545,5.545,0,0,1,1.692.72,3,3,0,0,1-.108-0.792,4.167,4.167,0,0,1,1.26-3.06,4.253,4.253,0,0,1,3.132-1.26,6.208,6.208,0,0,1,2.88.648,8.031,8.031,0,0,1,2.142,1.566q0.882,0.918,2.034,2.394a18.975,18.975,0,0,0,2.34,2.61,3.346,3.346,0,0,0,2.268.846,4.937,4.937,0,0,0,2.394-.576,1.8,1.8,0,0,0,1.062-1.656,3.027,3.027,0,0,0-.144-0.99,2.5,2.5,0,0,0-.54-0.846q-0.036,0-.342.072a2.316,2.316,0,0,1-.522.072,1.585,1.585,0,0,1-1.26-.594,2.177,2.177,0,0,1-.5-1.458,2.117,2.117,0,0,1,.846-1.746,3.189,3.189,0,0,1,2.034-.666,2.811,2.811,0,0,1,2.538,1.638,7.565,7.565,0,0,1,.918,3.762,8.886,8.886,0,0,1-2.484,6.048,17.226,17.226,0,0,1-6.336,4.374,19.923,19.923,0,0,1-7.7,1.6,9.908,9.908,0,0,1-3.762-.738,7.325,7.325,0,0,1-2.952-2.106,4.867,4.867,0,0,1-1.134-3.2,3.119,3.119,0,0,1,.576-1.854A3.959,3.959,0,0,1,261.2,33a0.2,0.2,0,0,0,.108-0.162c0-.06-0.06-0.1-0.18-0.126a3.871,3.871,0,0,0-1.116-.324q-0.684-.108-0.972-0.18a8.9,8.9,0,0,1-1.764,3.474,3.7,3.7,0,0,1-2.916,1.458,3.891,3.891,0,0,1-1.044-.162,8.762,8.762,0,0,1-1.08-.378,5.665,5.665,0,0,1-.558-0.2,1.918,1.918,0,0,0-.63-0.162,1.139,1.139,0,0,0-.972.666,3.311,3.311,0,0,0-.4,1.71,3.536,3.536,0,0,0,.45,1.746,1.276,1.276,0,0,0,1.062.81,1.424,1.424,0,0,0,.648-0.4,3.916,3.916,0,0,1,.648-0.378,1.6,1.6,0,0,1,.648-0.126,1.168,1.168,0,0,1,1.008.5,1.992,1.992,0,0,1,.36,1.188,2.14,2.14,0,0,1-.918,1.8,3.546,3.546,0,0,1-2.178.684,3.206,3.206,0,0,1-2.088-.7,8.445,8.445,0,0,1-1.656-1.89,3.252,3.252,0,0,1-1.764-.4,1.625,1.625,0,0,1-.612-1.476,6.176,6.176,0,0,1,1.116-3.546,6.658,6.658,0,0,1,3.024-2.43h0Zm4.212,0.144q1.116,0,2.412-2.2l-0.792.036a4.947,4.947,0,0,0-1.746.378,1.053,1.053,0,0,0-.81.7,1.069,1.069,0,0,0,.288.792,0.894,0.894,0,0,0,.648.288h0Z"/>
</svg>
